<svg width="42" height="42" viewBox="0 0 42 42" fill="none" xmlns="http://www.w3.org/2000/svg">
<path d="M16.9308 2.79284C18.1095 -0.931125 23.3792 -0.931129 24.5579 2.79284L27.3302 11.5518C27.7231 12.793 28.6955 13.7654 29.9367 14.1583L38.6957 16.9306C42.4197 18.1093 42.4197 23.379 38.6957 24.5577L29.9367 27.33C28.6955 27.7229 27.7231 28.6952 27.3302 29.9365L24.5579 38.6954C23.3793 42.4194 18.1095 42.4194 16.9308 38.6954L14.1585 29.9365C13.7657 28.6952 12.7933 27.7229 11.552 27.33L2.79309 24.5577C-0.930881 23.379 -0.930884 18.1093 2.79308 16.9306L11.552 14.1583C12.7933 13.7654 13.7657 12.793 14.1585 11.5518L16.9308 2.79284Z" fill="url(#paint0_linear_198_3326)"/>
<defs>
<linearGradient id="paint0_linear_198_3326" x1="20.7444" y1="-9.25586" x2="20.7444" y2="50.7441" gradientUnits="userSpaceOnUse">
<stop stop-color="#070BFF"/>
<stop offset="0.471154" stop-color="#6E70F7"/>
<stop offset="1" stop-color="#BFC0FF"/>
</linearGradient>
</defs>
</svg>
